<svg xmlns="http://www.w3.org/2000/svg" data-name="Layer 1"
  viewBox="2.001006841659546 8.998519897460938 59.996986389160156 47.00048065185547" x="0px" y="0px">
  <path
    d="M2.882,39.542a.953.953,0,0,0,.926.872v.014L29.4,42.194,27.963,54.888h0a.973.973,0,0,0,.041.383.824.824,0,0,0,.029.088.975.975,0,0,0,.2.331,1,1,0,0,0,.722.309l.069,0,31.167-2.152v-.013a.984.984,0,0,0,.375-.088,1,1,0,0,0,.551-.784l.876-7.761a1,1,0,0,0-.132-.605l.007,0L57.781,37.43a1,1,0,0,0-.147-.2L47.952,27.122a1.007,1.007,0,0,0-.189-.155l-6.977-4.395,0,.006a1,1,0,0,0-.6-.157l-6.249.431-1.4-12.426h-.008a.971.971,0,0,0-.917-.886L23.816,9a1.012,1.012,0,0,0-.6.158l0-.006-6.977,4.395a1.007,1.007,0,0,0-.189.155L6.366,23.816a1,1,0,0,0-.147.2L2.131,31.174l.007,0a1,1,0,0,0-.132.605ZM19.86,18.4l4.6,2.426L13.845,31.91l-2.624-4.489ZM44.14,31.816l8.639,9.023-2.624,4.489L39.541,34.242Zm-30.389,2.85,14.525,5.446L7.115,38.651Zm36.5,13.418,6.637,3.986L35.723,53.531Zm9.057,3.106-7.594-4.561,2.653-4.539L59.936,45.6ZM48.579,46.574l-17.788,6.67,7.437-17.481ZM30.719,48.3,33.1,27.226l3.694,6.8Zm.865-24.827a.994.994,0,0,0-.109.37h-.008l-.6,5.357-3.655-8.59,3.694-6.8L31.951,23.1A.994.994,0,0,0,31.584,23.475ZM30.407,33.24l-.6,5.31L15.421,33.156,25.772,22.345ZM9.636,28.671l2.653,4.54L4.7,37.771l-.631-5.59ZM56.1,38.528l2.045,3.581-3.489-2.2-9.512-9.934L43.1,26.4l3.489,2.2ZM39.7,24.459l3.264,5.719-4.651,2.453-4.226-7.784Zm-9.779-13.03-4.226,7.784L21.04,16.76,24.3,11.041ZM7.9,25.11l9.511-9.934,3.488-2.2-2.043,3.581L9.34,26.494l-3.488,2.2Z"></path>
  <rect x="40" y="13" width="2" height="2"></rect>
  <rect x="42" y="11" width="2" height="2"></rect>
  <rect x="44" y="13" width="2" height="2"></rect>
  <rect x="42" y="15" width="2" height="2"></rect>
  <rect x="45" y="19" width="2" height="2"></rect>
  <rect x="8" y="49" width="2" height="2"></rect>
  <rect x="10" y="51" width="2" height="2"></rect>
  <rect x="12" y="49" width="2" height="2"></rect>
  <rect x="10" y="47" width="2" height="2"></rect>
  <rect x="13" y="43" width="2" height="2"></rect>
  <rect x="57" y="25" width="2" height="2"></rect>
</svg>